<?xml version="1.0" encoding="utf-8" ?>
<svg baseProfile="full" height="57.5mm" version="1.1" viewBox="0,0,306.20000000000005,57.5" width="306.20000000000005mm" xmlns="http://www.w3.org/2000/svg" xmlns:ev="http://www.w3.org/2001/xml-events" xmlns:xlink="http://www.w3.org/1999/xlink"><defs /><rect fill="#fdf6e3" height="57.5" width="306.20000000000005" x="0" y="0" /><text fill="#586e75" style="font-size:6px; font-family:Arial; font-weight:bold;" x="10" y="10">Loptr</text><text fill="#586e75" style="font-size:3px; font-family:Arial;" x="10" y="14.4">2024: 643 hours</text><text fill="#586e75" style="font-size:2.5px; font-family:Arial" x="10" y="18.3">Jan</text><rect fill="#eee8d5" height="4" rx="1" ry="1" width="4" x="10" y="19.7"><title>2024-01-01</title></rect><rect fill="#eee8d5" height="4" rx="1" ry="1" width="4" x="10" y="25.1"><title>2024-01-02</title></rect><rect fill="#bab304" height="4" rx="1" ry="1" width="4" x="10" y="30.5"><title>2024-01-03 49.67 mins</title></rect><rect fill="#eee8d5" height="4" rx="1" ry="1" width="4" x="10" y="35.9"><title>2024-01-04</title></rect><rect fill="#eee8d5" height="4" rx="1" ry="1" width="4" x="10" y="41.300000000000004"><title>2024-01-05</title></rect><rect fill="#eee8d5" height="4" rx="1" ry="1" width="4" x="10" y="46.699999999999996"><title>2024-01-06</title></rect><rect fill="#eee8d5" height="4" rx="1" ry="1" width="4" x="10" y="52.1"><title>2024-01-07</title></rect><rect fill="#b9af03" height="4" rx="1" ry="1" width="4" x="15.4" y="19.7"><title>2024-01-08 44.18 mins</title></rect><rect fill="#cfb41e" height="4" rx="1" ry="1" width="4" x="15.4" y="25.1"><title>2024-01-09 115.07 mins</title></rect><rect fill="#cd831a" height="4" rx="1" ry="1" width="4" x="15.4" y="30.5"><title>2024-01-10 61.02 mins</title></rect><rect fill="#cd871a" height="4" rx="1" ry="1" width="4" x="15.4" y="35.9"><title>2024-01-11 65.23 mins</title></rect><rect fill="#cdd021" height="4" rx="1" ry="1" width="4" x="15.4" y="41.300000000000004"><title>2024-01-12 150.27 mins</title></rect><rect fill="#6c71c4" height="4" rx="1" ry="1" width="4" x="15.4" y="46.699999999999996"><title>2024-01-13 518.53 mins</title></rect><rect fill="#6c71c4" height="4" rx="1" ry="1" width="4" x="15.4" y="52.1"><title>2024-01-14 253.97 mins</title></rect><rect fill="#6c71c4" height="4" rx="1" ry="1" width="4" x="20.8" y="19.7"><title>2024-01-15 252.02 mins</title></rect><rect fill="#6c71c4" height="4" rx="1" ry="1" width="4" x="20.8" y="25.1"><title>2024-01-16 418.92 mins</title></rect><rect fill="#6c71c4" height="4" rx="1" ry="1" width="4" x="20.8" y="30.5"><title>2024-01-17 239.23 mins</title></rect><rect fill="#6c71c4" height="4" rx="1" ry="1" width="4" x="20.8" y="35.9"><title>2024-01-18 323.05 mins</title></rect><rect fill="#b6d123" height="4" rx="1" ry="1" width="4" x="20.8" y="41.300000000000004"><title>2024-01-19 178.07 mins</title></rect><rect fill="#ce8e1b" height="4" rx="1" ry="1" width="4" x="20.8" y="46.699999999999996"><title>2024-01-20 72.6 mins</title></rect><rect fill="#6c71c4" height="4" rx="1" ry="1" width="4" x="20.8" y="52.1"><title>2024-01-21 240.95 mins</title></rect><rect fill="#6c71c4" height="4" rx="1" ry="1" width="4" x="26.200000000000003" y="19.7"><title>2024-01-22 197.45 mins</title></rect><rect fill="#b69001" height="4" rx="1" ry="1" width="4" x="26.200000000000003" y="25.1"><title>2024-01-23 7.73 mins</title></rect><rect fill="#cfb31e" height="4" rx="1" ry="1" width="4" x="26.200000000000003" y="30.5"><title>2024-01-24 113.45 mins</title></rect><rect fill="#6c71c4" height="4" rx="1" ry="1" width="4" x="26.200000000000003" y="35.9"><title>2024-01-25 417.77 mins</title></rect><rect fill="#6c71c4" height="4" rx="1" ry="1" width="4" x="26.200000000000003" y="41.300000000000004"><title>2024-01-26 232.57 mins</title></rect><rect fill="#6c71c4" height="4" rx="1" ry="1" width="4" x="26.200000000000003" y="46.699999999999996"><title>2024-01-27 318.85 mins</title></rect><rect fill="#6c71c4" height="4" rx="1" ry="1" width="4" x="26.200000000000003" y="52.1"><title>2024-01-28 554.75 mins</title></rect><rect fill="#6c71c4" height="4" rx="1" ry="1" width="4" x="31.6" y="19.7"><title>2024-01-29 400.83 mins</title></rect><rect fill="#6c71c4" height="4" rx="1" ry="1" width="4" x="31.6" y="25.1"><title>2024-01-30 487.97 mins</title></rect><rect fill="#cfab1d" height="4" rx="1" ry="1" width="4" x="31.6" y="30.5"><title>2024-01-31 104.9 mins</title></rect><rect fill="#6c71c4" height="4" rx="1" ry="1" width="4" x="31.6" y="35.9"><title>2024-02-01 402.33 mins</title></rect><rect fill="#b9ab03" height="4" rx="1" ry="1" width="4" x="31.6" y="41.300000000000004"><title>2024-02-02 39.35 mins</title></rect><rect fill="#6c71c4" height="4" rx="1" ry="1" width="4" x="31.6" y="46.699999999999996"><title>2024-02-03 331.3 mins</title></rect><rect fill="#6c71c4" height="4" rx="1" ry="1" width="4" x="31.6" y="52.1"><title>2024-02-04 390.92 mins</title></rect><text fill="#586e75" style="font-size:2.5px; font-family:Arial" x="37.0" y="18.3">Feb</text><rect fill="#ce8d1b" height="4" rx="1" ry="1" width="4" x="37.0" y="19.7"><title>2024-02-05 71.42 mins</title></rect><rect fill="#d0cf20" height="4" rx="1" ry="1" width="4" x="37.0" y="25.1"><title>2024-02-06 145.43 mins</title></rect><rect fill="#6c71c4" height="4" rx="1" ry="1" width="4" x="37.0" y="30.5"><title>2024-02-07 207.15 mins</title></rect><rect fill="#ce911b" height="4" rx="1" ry="1" width="4" x="37.0" y="35.9"><title>2024-02-08 76.53 mins</title></rect><rect fill="#cfa91d" height="4" rx="1" ry="1" width="4" x="37.0" y="41.300000000000004"><title>2024-02-09 102.8 mins</title></rect><rect fill="#cea21d" height="4" rx="1" ry="1" width="4" x="37.0" y="46.699999999999996"><title>2024-02-10 95.03 mins</title></rect><rect fill="#ce991c" height="4" rx="1" ry="1" width="4" x="37.0" y="52.1"><title>2024-02-11 85.15 mins</title></rect><rect fill="#6c71c4" height="4" rx="1" ry="1" width="4" x="42.4" y="19.7"><title>2024-02-12 196.85 mins</title></rect><rect fill="#d0ce20" height="4" rx="1" ry="1" width="4" x="42.4" y="25.1"><title>2024-02-13 144.67 mins</title></rect><rect fill="#cfaf1e" height="4" rx="1" ry="1" width="4" x="42.4" y="30.5"><title>2024-02-14 109.13 mins</title></rect><rect fill="#cea01c" height="4" rx="1" ry="1" width="4" x="42.4" y="35.9"><title>2024-02-15 93.1 mins</title></rect><rect fill="#baba04" height="4" rx="1" ry="1" width="4" x="42.4" y="41.300000000000004"><title>2024-02-16 57.45 mins</title></rect><rect fill="#b69001" height="4" rx="1" ry="1" width="4" x="42.4" y="46.699999999999996"><title>2024-02-17 8.82 mins</title></rect><rect fill="#b79d02" height="4" rx="1" ry="1" width="4" x="42.4" y="52.1"><title>2024-02-18 23.52 mins</title></rect><rect fill="#b69701" height="4" rx="1" ry="1" width="4" x="47.8" y="19.7"><title>2024-02-19 15.95 mins</title></rect><rect fill="#b68e00" height="4" rx="1" ry="1" width="4" x="47.8" y="25.1"><title>2024-02-20 6.32 mins</title></rect><rect fill="#bab904" height="4" rx="1" ry="1" width="4" x="47.8" y="30.5"><title>2024-02-21 56.48 mins</title></rect><rect fill="#cfbe1f" height="4" rx="1" ry="1" width="4" x="47.8" y="35.9"><title>2024-02-22 126.27 mins</title></rect><rect fill="#b69501" height="4" rx="1" ry="1" width="4" x="47.8" y="41.300000000000004"><title>2024-02-23 14.55 mins</title></rect><rect fill="#b8a102" height="4" rx="1" ry="1" width="4" x="47.8" y="46.699999999999996"><title>2024-02-24 28.13 mins</title></rect><rect fill="#cfa81d" height="4" rx="1" ry="1" width="4" x="47.8" y="52.1"><title>2024-02-25 101.4 mins</title></rect><rect fill="#cd811a" height="4" rx="1" ry="1" width="4" x="53.199999999999996" y="19.7"><title>2024-02-26 58.78 mins</title></rect><rect fill="#b79e02" height="4" rx="1" ry="1" width="4" x="53.199999999999996" y="25.1"><title>2024-02-27 24.22 mins</title></rect><rect fill="#b69701" height="4" rx="1" ry="1" width="4" x="53.199999999999996" y="30.5"><title>2024-02-28 16.03 mins</title></rect><rect fill="#b8a903" height="4" rx="1" ry="1" width="4" x="53.199999999999996" y="35.9"><title>2024-02-29 37.58 mins</title></rect><rect fill="#b9b203" height="4" rx="1" ry="1" width="4" x="53.199999999999996" y="41.300000000000004"><title>2024-03-01 48.48 mins</title></rect><rect fill="#b7a002" height="4" rx="1" ry="1" width="4" x="53.199999999999996" y="46.699999999999996"><title>2024-03-02 27.05 mins</title></rect><rect fill="#b79901" height="4" rx="1" ry="1" width="4" x="53.199999999999996" y="52.1"><title>2024-03-03 18.65 mins</title></rect><text fill="#586e75" style="font-size:2.5px; font-family:Arial" x="58.599999999999994" y="18.3">Mar</text><rect fill="#b79b01" height="4" rx="1" ry="1" width="4" x="58.599999999999994" y="19.7"><title>2024-03-04 20.6 mins</title></rect><rect fill="#b69401" height="4" rx="1" ry="1" width="4" x="58.599999999999994" y="25.1"><title>2024-03-05 13.22 mins</title></rect><rect fill="#b69301" height="4" rx="1" ry="1" width="4" x="58.599999999999994" y="30.5"><title>2024-03-06 11.57 mins</title></rect><rect fill="#b79b01" height="4" rx="1" ry="1" width="4" x="58.599999999999994" y="35.9"><title>2024-03-07 20.98 mins</title></rect><rect fill="#b9ad03" height="4" rx="1" ry="1" width="4" x="58.599999999999994" y="41.300000000000004"><title>2024-03-08 41.98 mins</title></rect><rect fill="#b9ae03" height="4" rx="1" ry="1" width="4" x="58.599999999999994" y="46.699999999999996"><title>2024-03-09 43.18 mins</title></rect><rect fill="#baba04" height="4" rx="1" ry="1" width="4" x="58.599999999999994" y="52.1"><title>2024-03-10 57.5 mins</title></rect><rect fill="#b9aa03" height="4" rx="1" ry="1" width="4" x="63.99999999999999" y="19.7"><title>2024-03-11 39.18 mins</title></rect><rect fill="#cd891b" height="4" rx="1" ry="1" width="4" x="63.99999999999999" y="25.1"><title>2024-03-12 66.97 mins</title></rect><rect fill="#b8a502" height="4" rx="1" ry="1" width="4" x="63.99999999999999" y="30.5"><title>2024-03-13 33.17 mins</title></rect><rect fill="#cfb71e" height="4" rx="1" ry="1" width="4" x="63.99999999999999" y="35.9"><title>2024-03-14 118.38 mins</title></rect><rect fill="#ce9d1c" height="4" rx="1" ry="1" width="4" x="63.99999999999999" y="41.300000000000004"><title>2024-03-15 89.07 mins</title></rect><rect fill="#b8a202" height="4" rx="1" ry="1" width="4" x="63.99999999999999" y="46.699999999999996"><title>2024-03-16 29.37 mins</title></rect><rect fill="#ce9a1c" height="4" rx="1" ry="1" width="4" x="63.99999999999999" y="52.1"><title>2024-03-17 85.62 mins</title></rect><rect fill="#b79c02" height="4" rx="1" ry="1" width="4" x="69.39999999999999" y="19.7"><title>2024-03-18 22.4 mins</title></rect><rect fill="#b58d00" height="4" rx="1" ry="1" width="4" x="69.39999999999999" y="25.1"><title>2024-03-19 4.73 mins</title></rect><rect fill="#6c71c4" height="4" rx="1" ry="1" width="4" x="69.39999999999999" y="30.5"><title>2024-03-20 195.08 mins</title></rect><rect fill="#b58d00" height="4" rx="1" ry="1" width="4" x="69.39999999999999" y="35.9"><title>2024-03-21 4.5 mins</title></rect><rect fill="#6c71c4" height="4" rx="1" ry="1" width="4" x="69.39999999999999" y="41.300000000000004"><title>2024-03-22 215.62 mins</title></rect><rect fill="#cd831a" height="4" rx="1" ry="1" width="4" x="69.39999999999999" y="46.699999999999996"><title>2024-03-23 60.87 mins</title></rect><rect fill="#6c71c4" height="4" rx="1" ry="1" width="4" x="69.39999999999999" y="52.1"><title>2024-03-24 413.88 mins</title></rect><rect fill="#6c71c4" height="4" rx="1" ry="1" width="4" x="74.8" y="19.7"><title>2024-03-25 595.48 mins</title></rect><rect fill="#6c71c4" height="4" rx="1" ry="1" width="4" x="74.8" y="25.1"><title>2024-03-26 379.65 mins</title></rect><rect fill="#6c71c4" height="4" rx="1" ry="1" width="4" x="74.8" y="30.5"><title>2024-03-27 423.67 mins</title></rect><rect fill="#6c71c4" height="4" rx="1" ry="1" width="4" x="74.8" y="35.9"><title>2024-03-28 477.43 mins</title></rect><rect fill="#c3d121" height="4" rx="1" ry="1" width="4" x="74.8" y="41.300000000000004"><title>2024-03-29 162.77 mins</title></rect><rect fill="#6c71c4" height="4" rx="1" ry="1" width="4" x="74.8" y="46.699999999999996"><title>2024-03-30 602.47 mins</title></rect><rect fill="#6c71c4" height="4" rx="1" ry="1" width="4" x="74.8" y="52.1"><title>2024-03-31 382.82 mins</title></rect><text fill="#586e75" style="font-size:2.5px; font-family:Arial" x="80.2" y="18.3">Apr</text><rect fill="#6c71c4" height="4" rx="1" ry="1" width="4" x="80.2" y="19.7"><title>2024-04-01 321.78 mins</title></rect><rect fill="#c0d122" height="4" rx="1" ry="1" width="4" x="80.2" y="25.1"><title>2024-04-02 165.55 mins</title></rect><rect fill="#6c71c4" height="4" rx="1" ry="1" width="4" x="80.2" y="30.5"><title>2024-04-03 362.1 mins</title></rect><rect fill="#6c71c4" height="4" rx="1" ry="1" width="4" x="80.2" y="35.9"><title>2024-04-04 265.02 mins</title></rect><rect fill="#cfa81d" height="4" rx="1" ry="1" width="4" x="80.2" y="41.300000000000004"><title>2024-04-05 101.98 mins</title></rect><rect fill="#b69401" height="4" rx="1" ry="1" width="4" x="80.2" y="46.699999999999996"><title>2024-04-06 12.55 mins</title></rect><rect fill="#6c71c4" height="4" rx="1" ry="1" width="4" x="80.2" y="52.1"><title>2024-04-07 343.03 mins</title></rect><rect fill="#6c71c4" height="4" rx="1" ry="1" width="4" x="85.60000000000001" y="19.7"><title>2024-04-08 427.45 mins</title></rect><rect fill="#6c71c4" height="4" rx="1" ry="1" width="4" x="85.60000000000001" y="25.1"><title>2024-04-09 449.92 mins</title></rect><rect fill="#b8a402" height="4" rx="1" ry="1" width="4" x="85.60000000000001" y="30.5"><title>2024-04-10 32.0 mins</title></rect><rect fill="#6c71c4" height="4" rx="1" ry="1" width="4" x="85.60000000000001" y="35.9"><title>2024-04-11 229.65 mins</title></rect><rect fill="#6c71c4" height="4" rx="1" ry="1" width="4" x="85.60000000000001" y="41.300000000000004"><title>2024-04-12 220.8 mins</title></rect><rect fill="#cfa61d" height="4" rx="1" ry="1" width="4" x="85.60000000000001" y="46.699999999999996"><title>2024-04-13 99.27 mins</title></rect><rect fill="#bab404" height="4" rx="1" ry="1" width="4" x="85.60000000000001" y="52.1"><title>2024-04-14 49.92 mins</title></rect><rect fill="#bbd122" height="4" rx="1" ry="1" width="4" x="91.00000000000001" y="19.7"><title>2024-04-15 172.2 mins</title></rect><rect fill="#6c71c4" height="4" rx="1" ry="1" width="4" x="91.00000000000001" y="25.1"><title>2024-04-16 299.07 mins</title></rect><rect fill="#6c71c4" height="4" rx="1" ry="1" width="4" x="91.00000000000001" y="30.5"><title>2024-04-17 473.62 mins</title></rect><rect fill="#6c71c4" height="4" rx="1" ry="1" width="4" x="91.00000000000001" y="35.9"><title>2024-04-18 563.73 mins</title></rect><rect fill="#6c71c4" height="4" rx="1" ry="1" width="4" x="91.00000000000001" y="41.300000000000004"><title>2024-04-19 297.92 mins</title></rect><rect fill="#6c71c4" height="4" rx="1" ry="1" width="4" x="91.00000000000001" y="46.699999999999996"><title>2024-04-20 555.63 mins</title></rect><rect fill="#d0c21f" height="4" rx="1" ry="1" width="4" x="91.00000000000001" y="52.1"><title>2024-04-21 130.35 mins</title></rect><rect fill="#6c71c4" height="4" rx="1" ry="1" width="4" x="96.40000000000002" y="19.7"><title>2024-04-22 408.13 mins</title></rect><rect fill="#6c71c4" height="4" rx="1" ry="1" width="4" x="96.40000000000002" y="25.1"><title>2024-04-23 491.13 mins</title></rect><rect fill="#6c71c4" height="4" rx="1" ry="1" width="4" x="96.40000000000002" y="30.5"><title>2024-04-24 755.93 mins</title></rect><rect fill="#6c71c4" height="4" rx="1" ry="1" width="4" x="96.40000000000002" y="35.9"><title>2024-04-25 409.95 mins</title></rect><rect fill="#ce911b" height="4" rx="1" ry="1" width="4" x="96.40000000000002" y="41.300000000000004"><title>2024-04-26 76.28 mins</title></rect><rect fill="#b9ac03" height="4" rx="1" ry="1" width="4" x="96.40000000000002" y="46.699999999999996"><title>2024-04-27 40.73 mins</title></rect><rect fill="#b69101" height="4" rx="1" ry="1" width="4" x="96.40000000000002" y="52.1"><title>2024-04-28 9.47 mins</title></rect><rect fill="#b79a01" height="4" rx="1" ry="1" width="4" x="101.80000000000003" y="19.7"><title>2024-04-29 19.47 mins</title></rect><rect fill="#cdd021" height="4" rx="1" ry="1" width="4" x="101.80000000000003" y="25.1"><title>2024-04-30 149.57 mins</title></rect><rect fill="#b8a302" height="4" rx="1" ry="1" width="4" x="101.80000000000003" y="30.5"><title>2024-05-01 31.07 mins</title></rect><rect fill="#bab704" height="4" rx="1" ry="1" width="4" x="101.80000000000003" y="35.9"><title>2024-05-02 54.25 mins</title></rect><rect fill="#b69101" height="4" rx="1" ry="1" width="4" x="101.80000000000003" y="41.300000000000004"><title>2024-05-03 8.92 mins</title></rect><rect fill="#ce941b" height="4" rx="1" ry="1" width="4" x="101.80000000000003" y="46.699999999999996"><title>2024-05-04 79.5 mins</title></rect><rect fill="#6c71c4" height="4" rx="1" ry="1" width="4" x="101.80000000000003" y="52.1"><title>2024-05-05 248.08 mins</title></rect><text fill="#586e75" style="font-size:2.5px; font-family:Arial" x="107.20000000000003" y="18.3">May</text><rect fill="#b58900" height="4" rx="1" ry="1" width="4" x="107.20000000000003" y="19.7"><title>2024-05-06 0.05 mins</title></rect><rect fill="#b8a302" height="4" rx="1" ry="1" width="4" x="107.20000000000003" y="25.1"><title>2024-05-07 29.95 mins</title></rect><rect fill="#bab504" height="4" rx="1" ry="1" width="4" x="107.20000000000003" y="30.5"><title>2024-05-08 51.25 mins</title></rect><rect fill="#b79f02" height="4" rx="1" ry="1" width="4" x="107.20000000000003" y="35.9"><title>2024-05-09 26.27 mins</title></rect><rect fill="#6c71c4" height="4" rx="1" ry="1" width="4" x="107.20000000000003" y="41.300000000000004"><title>2024-05-10 204.03 mins</title></rect><rect fill="#6c71c4" height="4" rx="1" ry="1" width="4" x="107.20000000000003" y="46.699999999999996"><title>2024-05-11 333.53 mins</title></rect><rect fill="#d0c51f" height="4" rx="1" ry="1" width="4" x="107.20000000000003" y="52.1"><title>2024-05-12 134.43 mins</title></rect><rect fill="#c1d122" height="4" rx="1" ry="1" width="4" x="112.60000000000004" y="19.7"><title>2024-05-13 164.32 mins</title></rect><rect fill="#b79f02" height="4" rx="1" ry="1" width="4" x="112.60000000000004" y="25.1"><title>2024-05-14 26.22 mins</title></rect><rect fill="#cfbf1f" height="4" rx="1" ry="1" width="4" x="112.60000000000004" y="30.5"><title>2024-05-15 127.45 mins</title></rect><rect fill="#b58a00" height="4" rx="1" ry="1" width="4" x="112.60000000000004" y="35.9"><title>2024-05-16 0.62 mins</title></rect><rect fill="#6c71c4" height="4" rx="1" ry="1" width="4" x="112.60000000000004" y="41.300000000000004"><title>2024-05-17 202.73 mins</title></rect><rect fill="#ce971c" height="4" rx="1" ry="1" width="4" x="112.60000000000004" y="46.699999999999996"><title>2024-05-18 82.93 mins</title></rect><rect fill="#cfa91d" height="4" rx="1" ry="1" width="4" x="112.60000000000004" y="52.1"><title>2024-05-19 102.4 mins</title></rect><rect fill="#cfbc1f" height="4" rx="1" ry="1" width="4" x="118.00000000000004" y="19.7"><title>2024-05-20 123.78 mins</title></rect><rect fill="#6c71c4" height="4" rx="1" ry="1" width="4" x="118.00000000000004" y="25.1"><title>2024-05-21 224.55 mins</title></rect><rect fill="#b68f00" height="4" rx="1" ry="1" width="4" x="118.00000000000004" y="30.5"><title>2024-05-22 6.9 mins</title></rect><rect fill="#b8a402" height="4" rx="1" ry="1" width="4" x="118.00000000000004" y="35.9"><title>2024-05-23 31.93 mins</title></rect><rect fill="#b8a202" height="4" rx="1" ry="1" width="4" x="118.00000000000004" y="41.300000000000004"><title>2024-05-24 29.75 mins</title></rect><rect fill="#d0c820" height="4" rx="1" ry="1" width="4" x="118.00000000000004" y="46.699999999999996"><title>2024-05-25 137.3 mins</title></rect><rect fill="#bab404" height="4" rx="1" ry="1" width="4" x="118.00000000000004" y="52.1"><title>2024-05-26 50.78 mins</title></rect><rect fill="#b8a302" height="4" rx="1" ry="1" width="4" x="123.40000000000005" y="19.7"><title>2024-05-27 29.98 mins</title></rect><rect fill="#cea51d" height="4" rx="1" ry="1" width="4" x="123.40000000000005" y="25.1"><title>2024-05-28 97.73 mins</title></rect><rect fill="#cad021" height="4" rx="1" ry="1" width="4" x="123.40000000000005" y="30.5"><title>2024-05-29 153.3 mins</title></rect><rect fill="#cfad1d" height="4" rx="1" ry="1" width="4" x="123.40000000000005" y="35.9"><title>2024-05-30 107.3 mins</title></rect><rect fill="#b69101" height="4" rx="1" ry="1" width="4" x="123.40000000000005" y="41.300000000000004"><title>2024-05-31 9.58 mins</title></rect><rect fill="#b68e00" height="4" rx="1" ry="1" width="4" x="123.40000000000005" y="46.699999999999996"><title>2024-06-01 6.13 mins</title></rect><rect fill="#cea01c" height="4" rx="1" ry="1" width="4" x="123.40000000000005" y="52.1"><title>2024-06-02 92.65 mins</title></rect><text fill="#586e75" style="font-size:2.5px; font-family:Arial" x="128.80000000000004" y="18.3">Jun</text><rect fill="#b58900" height="4" rx="1" ry="1" width="4" x="128.80000000000004" y="19.7"><title>2024-06-03 0.12 mins</title></rect><rect fill="#cd851a" height="4" rx="1" ry="1" width="4" x="128.80000000000004" y="25.1"><title>2024-06-04 62.8 mins</title></rect><rect fill="#b58900" height="4" rx="1" ry="1" width="4" x="128.80000000000004" y="30.5"><title>2024-06-05 0.08 mins</title></rect><rect fill="#6c71c4" height="4" rx="1" ry="1" width="4" x="128.80000000000004" y="35.9"><title>2024-06-06 218.82 mins</title></rect><rect fill="#b58a00" height="4" rx="1" ry="1" width="4" x="128.80000000000004" y="41.300000000000004"><title>2024-06-07 1.22 mins</title></rect><rect fill="#b69101" height="4" rx="1" ry="1" width="4" x="128.80000000000004" y="46.699999999999996"><title>2024-06-08 9.13 mins</title></rect><rect fill="#cd831a" height="4" rx="1" ry="1" width="4" x="128.80000000000004" y="52.1"><title>2024-06-09 60.35 mins</title></rect><rect fill="#cd891b" height="4" rx="1" ry="1" width="4" x="134.20000000000005" y="19.7"><title>2024-06-10 67.52 mins</title></rect><rect fill="#b79e02" height="4" rx="1" ry="1" width="4" x="134.20000000000005" y="25.1"><title>2024-06-11 25.0 mins</title></rect><rect fill="#b8a703" height="4" rx="1" ry="1" width="4" x="134.20000000000005" y="30.5"><title>2024-06-12 35.73 mins</title></rect><rect fill="#b58d00" height="4" rx="1" ry="1" width="4" x="134.20000000000005" y="35.9"><title>2024-06-13 5.18 mins</title></rect><rect fill="#b58c00" height="4" rx="1" ry="1" width="4" x="134.20000000000005" y="41.300000000000004"><title>2024-06-14 2.98 mins</title></rect><rect fill="#b58b00" height="4" rx="1" ry="1" width="4" x="134.20000000000005" y="46.699999999999996"><title>2024-06-15 2.55 mins</title></rect><rect fill="#b58900" height="4" rx="1" ry="1" width="4" x="134.20000000000005" y="52.1"><title>2024-06-16 0.25 mins</title></rect><rect fill="#ce9f1c" height="4" rx="1" ry="1" width="4" x="139.60000000000005" y="19.7"><title>2024-06-17 91.3 mins</title></rect><rect fill="#bed122" height="4" rx="1" ry="1" width="4" x="139.60000000000005" y="25.1"><title>2024-06-18 168.87 mins</title></rect><rect fill="#d0ce20" height="4" rx="1" ry="1" width="4" x="139.60000000000005" y="30.5"><title>2024-06-19 144.38 mins</title></rect><rect fill="#ce8f1b" height="4" rx="1" ry="1" width="4" x="139.60000000000005" y="35.9"><title>2024-06-20 74.12 mins</title></rect><rect fill="#b79b02" height="4" rx="1" ry="1" width="4" x="139.60000000000005" y="41.300000000000004"><title>2024-06-21 21.5 mins</title></rect><rect fill="#b69101" height="4" rx="1" ry="1" width="4" x="139.60000000000005" y="46.699999999999996"><title>2024-06-22 9.53 mins</title></rect><rect fill="#ce8b1b" height="4" rx="1" ry="1" width="4" x="139.60000000000005" y="52.1"><title>2024-06-23 69.9 mins</title></rect><rect fill="#6c71c4" height="4" rx="1" ry="1" width="4" x="145.00000000000006" y="19.7"><title>2024-06-24 351.68 mins</title></rect><rect fill="#b79801" height="4" rx="1" ry="1" width="4" x="145.00000000000006" y="25.1"><title>2024-06-25 17.18 mins</title></rect><rect fill="#b79901" height="4" rx="1" ry="1" width="4" x="145.00000000000006" y="30.5"><title>2024-06-26 19.08 mins</title></rect><rect fill="#b9ad03" height="4" rx="1" ry="1" width="4" x="145.00000000000006" y="35.9"><title>2024-06-27 42.68 mins</title></rect><rect fill="#6c71c4" height="4" rx="1" ry="1" width="4" x="145.00000000000006" y="41.300000000000004"><title>2024-06-28 313.22 mins</title></rect><rect fill="#b68e00" height="4" rx="1" ry="1" width="4" x="145.00000000000006" y="46.699999999999996"><title>2024-06-29 5.83 mins</title></rect><rect fill="#b58900" height="4" rx="1" ry="1" width="4" x="145.00000000000006" y="52.1"><title>2024-06-30 0.05 mins</title></rect><text fill="#586e75" style="font-size:2.5px; font-family:Arial" x="150.40000000000006" y="18.3">Jul</text><rect fill="#b58b00" height="4" rx="1" ry="1" width="4" x="150.40000000000006" y="19.7"><title>2024-07-01 2.08 mins</title></rect><rect fill="#b69201" height="4" rx="1" ry="1" width="4" x="150.40000000000006" y="25.1"><title>2024-07-02 10.4 mins</title></rect><rect fill="#b69201" height="4" rx="1" ry="1" width="4" x="150.40000000000006" y="30.5"><title>2024-07-03 10.38 mins</title></rect><rect fill="#b58b00" height="4" rx="1" ry="1" width="4" x="150.40000000000006" y="35.9"><title>2024-07-04 2.57 mins</title></rect><rect fill="#b9ac03" height="4" rx="1" ry="1" width="4" x="150.40000000000006" y="41.300000000000004"><title>2024-07-05 40.85 mins</title></rect><rect fill="#b8a102" height="4" rx="1" ry="1" width="4" x="150.40000000000006" y="46.699999999999996"><title>2024-07-06 28.07 mins</title></rect><rect fill="#b79701" height="4" rx="1" ry="1" width="4" x="150.40000000000006" y="52.1"><title>2024-07-07 16.6 mins</title></rect><rect fill="#bab604" height="4" rx="1" ry="1" width="4" x="155.80000000000007" y="19.7"><title>2024-07-08 53.12 mins</title></rect><rect fill="#ce8c1b" height="4" rx="1" ry="1" width="4" x="155.80000000000007" y="25.1"><title>2024-07-09 70.43 mins</title></rect><rect fill="#ce921b" height="4" rx="1" ry="1" width="4" x="155.80000000000007" y="30.5"><title>2024-07-10 76.75 mins</title></rect><rect fill="#ce901b" height="4" rx="1" ry="1" width="4" x="155.80000000000007" y="35.9"><title>2024-07-11 75.0 mins</title></rect><rect fill="#6c71c4" height="4" rx="1" ry="1" width="4" x="155.80000000000007" y="41.300000000000004"><title>2024-07-12 233.62 mins</title></rect><rect fill="#6c71c4" height="4" rx="1" ry="1" width="4" x="155.80000000000007" y="46.699999999999996"><title>2024-07-13 434.92 mins</title></rect><rect fill="#cfb41e" height="4" rx="1" ry="1" width="4" x="155.80000000000007" y="52.1"><title>2024-07-14 115.05 mins</title></rect><rect fill="#cd861a" height="4" rx="1" ry="1" width="4" x="161.20000000000007" y="19.7"><title>2024-07-15 64.2 mins</title></rect><rect fill="#b79a01" height="4" rx="1" ry="1" width="4" x="161.20000000000007" y="25.1"><title>2024-07-16 19.63 mins</title></rect><rect fill="#6c71c4" height="4" rx="1" ry="1" width="4" x="161.20000000000007" y="30.5"><title>2024-07-17 287.95 mins</title></rect><rect fill="#baba04" height="4" rx="1" ry="1" width="4" x="161.20000000000007" y="35.9"><title>2024-07-18 57.08 mins</title></rect><rect fill="#cd831a" height="4" rx="1" ry="1" width="4" x="161.20000000000007" y="41.300000000000004"><title>2024-07-19 60.95 mins</title></rect><rect fill="#b58c00" height="4" rx="1" ry="1" width="4" x="161.20000000000007" y="46.699999999999996"><title>2024-07-20 3.25 mins</title></rect><rect fill="#baba04" height="4" rx="1" ry="1" width="4" x="161.20000000000007" y="52.1"><title>2024-07-21 58.72 mins</title></rect><rect fill="#b58900" height="4" rx="1" ry="1" width="4" x="166.60000000000008" y="19.7"><title>2024-07-22 0.25 mins</title></rect><rect fill="#cd831a" height="4" rx="1" ry="1" width="4" x="166.60000000000008" y="25.1"><title>2024-07-23 60.68 mins</title></rect><rect fill="#eee8d5" height="4" rx="1" ry="1" width="4" x="166.60000000000008" y="30.5"><title>2024-07-24</title></rect><rect fill="#b69101" height="4" rx="1" ry="1" width="4" x="166.60000000000008" y="35.9"><title>2024-07-25 9.62 mins</title></rect><rect fill="#b58900" height="4" rx="1" ry="1" width="4" x="166.60000000000008" y="41.300000000000004"><title>2024-07-26 0.08 mins</title></rect><rect fill="#b8a302" height="4" rx="1" ry="1" width="4" x="166.60000000000008" y="46.699999999999996"><title>2024-07-27 30.02 mins</title></rect><rect fill="#cd861a" height="4" rx="1" ry="1" width="4" x="166.60000000000008" y="52.1"><title>2024-07-28 64.03 mins</title></rect><rect fill="#b58a00" height="4" rx="1" ry="1" width="4" x="172.00000000000009" y="19.7"><title>2024-07-29 0.85 mins</title></rect><rect fill="#cd891b" height="4" rx="1" ry="1" width="4" x="172.00000000000009" y="25.1"><title>2024-07-30 67.47 mins</title></rect><rect fill="#b8a202" height="4" rx="1" ry="1" width="4" x="172.00000000000009" y="30.5"><title>2024-07-31 29.88 mins</title></rect><rect fill="#ce921b" height="4" rx="1" ry="1" width="4" x="172.00000000000009" y="35.9"><title>2024-08-01 77.12 mins</title></rect><rect fill="#b79701" height="4" rx="1" ry="1" width="4" x="172.00000000000009" y="41.300000000000004"><title>2024-08-02 16.15 mins</title></rect><rect fill="#b8a302" height="4" rx="1" ry="1" width="4" x="172.00000000000009" y="46.699999999999996"><title>2024-08-03 30.87 mins</title></rect><rect fill="#ce951c" height="4" rx="1" ry="1" width="4" x="172.00000000000009" y="52.1"><title>2024-08-04 80.83 mins</title></rect><text fill="#586e75" style="font-size:2.5px; font-family:Arial" x="177.4000000000001" y="18.3">Aug</text><rect fill="#b9aa03" height="4" rx="1" ry="1" width="4" x="177.4000000000001" y="19.7"><title>2024-08-05 38.6 mins</title></rect><rect fill="#ce911b" height="4" rx="1" ry="1" width="4" x="177.4000000000001" y="25.1"><title>2024-08-06 76.53 mins</title></rect><rect fill="#ce971c" height="4" rx="1" ry="1" width="4" x="177.4000000000001" y="30.5"><title>2024-08-07 82.8 mins</title></rect><rect fill="#6c71c4" height="4" rx="1" ry="1" width="4" x="177.4000000000001" y="35.9"><title>2024-08-08 229.6 mins</title></rect><rect fill="#b9aa03" height="4" rx="1" ry="1" width="4" x="177.4000000000001" y="41.300000000000004"><title>2024-08-09 38.85 mins</title></rect><rect fill="#b58900" height="4" rx="1" ry="1" width="4" x="177.4000000000001" y="46.699999999999996"><title>2024-08-10 0.07 mins</title></rect><rect fill="#b69301" height="4" rx="1" ry="1" width="4" x="177.4000000000001" y="52.1"><title>2024-08-11 11.33 mins</title></rect><rect fill="#b58900" height="4" rx="1" ry="1" width="4" x="182.8000000000001" y="19.7"><title>2024-08-12 0.05 mins</title></rect><rect fill="#b58900" height="4" rx="1" ry="1" width="4" x="182.8000000000001" y="25.1"><title>2024-08-13 0.2 mins</title></rect><rect fill="#eee8d5" height="4" rx="1" ry="1" width="4" x="182.8000000000001" y="30.5"><title>2024-08-14</title></rect><rect fill="#b58900" height="4" rx="1" ry="1" width="4" x="182.8000000000001" y="35.9"><title>2024-08-15 0.23 mins</title></rect><rect fill="#b58b00" height="4" rx="1" ry="1" width="4" x="182.8000000000001" y="41.300000000000004"><title>2024-08-16 1.93 mins</title></rect><rect fill="#b58900" height="4" rx="1" ry="1" width="4" x="182.8000000000001" y="46.699999999999996"><title>2024-08-17 0.15 mins</title></rect><rect fill="#b79f02" height="4" rx="1" ry="1" width="4" x="182.8000000000001" y="52.1"><title>2024-08-18 26.13 mins</title></rect><rect fill="#eee8d5" height="4" rx="1" ry="1" width="4" x="188.2000000000001" y="19.7"><title>2024-08-19</title></rect><rect fill="#bab504" height="4" rx="1" ry="1" width="4" x="188.2000000000001" y="25.1"><title>2024-08-20 51.9 mins</title></rect><rect fill="#cfbb1f" height="4" rx="1" ry="1" width="4" x="188.2000000000001" y="30.5"><title>2024-08-21 122.45 mins</title></rect><rect fill="#cfa61d" height="4" rx="1" ry="1" width="4" x="188.2000000000001" y="35.9"><title>2024-08-22 99.62 mins</title></rect><rect fill="#b69001" height="4" rx="1" ry="1" width="4" x="188.2000000000001" y="41.300000000000004"><title>2024-08-23 7.9 mins</title></rect><rect fill="#b58c00" height="4" rx="1" ry="1" width="4" x="188.2000000000001" y="46.699999999999996"><title>2024-08-24 4.07 mins</title></rect><rect fill="#bab704" height="4" rx="1" ry="1" width="4" x="188.2000000000001" y="52.1"><title>2024-08-25 53.77 mins</title></rect><rect fill="#6c71c4" height="4" rx="1" ry="1" width="4" x="193.6000000000001" y="19.7"><title>2024-08-26 199.45 mins</title></rect><rect fill="#aad124" height="4" rx="1" ry="1" width="4" x="193.6000000000001" y="25.1"><title>2024-08-27 193.98 mins</title></rect><rect fill="#b58900" height="4" rx="1" ry="1" width="4" x="193.6000000000001" y="30.5"><title>2024-08-28 0.53 mins</title></rect><rect fill="#cdd021" height="4" rx="1" ry="1" width="4" x="193.6000000000001" y="35.9"><title>2024-08-29 149.82 mins</title></rect><rect fill="#b69201" height="4" rx="1" ry="1" width="4" x="193.6000000000001" y="41.300000000000004"><title>2024-08-30 10.35 mins</title></rect><rect fill="#6c71c4" height="4" rx="1" ry="1" width="4" x="193.6000000000001" y="46.699999999999996"><title>2024-08-31 335.92 mins</title></rect><rect fill="#ce8e1b" height="4" rx="1" ry="1" width="4" x="193.6000000000001" y="52.1"><title>2024-09-01 73.18 mins</title></rect><text fill="#586e75" style="font-size:2.5px; font-family:Arial" x="199.0000000000001" y="18.3">Sep</text><rect fill="#b79801" height="4" rx="1" ry="1" width="4" x="199.0000000000001" y="19.7"><title>2024-09-02 17.68 mins</title></rect><rect fill="#b58b00" height="4" rx="1" ry="1" width="4" x="199.0000000000001" y="25.1"><title>2024-09-03 2.9 mins</title></rect><rect fill="#b58900" height="4" rx="1" ry="1" width="4" x="199.0000000000001" y="30.5"><title>2024-09-04 0.53 mins</title></rect><rect fill="#b69301" height="4" rx="1" ry="1" width="4" x="199.0000000000001" y="35.9"><title>2024-09-05 11.18 mins</title></rect><rect fill="#6c71c4" height="4" rx="1" ry="1" width="4" x="199.0000000000001" y="41.300000000000004"><title>2024-09-06 499.72 mins</title></rect><rect fill="#6c71c4" height="4" rx="1" ry="1" width="4" x="199.0000000000001" y="46.699999999999996"><title>2024-09-07 230.3 mins</title></rect><rect fill="#bab804" height="4" rx="1" ry="1" width="4" x="199.0000000000001" y="52.1"><title>2024-09-08 55.33 mins</title></rect><rect fill="#6c71c4" height="4" rx="1" ry="1" width="4" x="204.40000000000012" y="19.7"><title>2024-09-09 460.2 mins</title></rect><rect fill="#afd123" height="4" rx="1" ry="1" width="4" x="204.40000000000012" y="25.1"><title>2024-09-10 187.32 mins</title></rect><rect fill="#cfb11e" height="4" rx="1" ry="1" width="4" x="204.40000000000012" y="30.5"><title>2024-09-11 111.18 mins</title></rect><rect fill="#6c71c4" height="4" rx="1" ry="1" width="4" x="204.40000000000012" y="35.9"><title>2024-09-12 325.63 mins</title></rect><rect fill="#b8d123" height="4" rx="1" ry="1" width="4" x="204.40000000000012" y="41.300000000000004"><title>2024-09-13 176.58 mins</title></rect><rect fill="#b58d00" height="4" rx="1" ry="1" width="4" x="204.40000000000012" y="46.699999999999996"><title>2024-09-14 5.02 mins</title></rect><rect fill="#b79b02" height="4" rx="1" ry="1" width="4" x="204.40000000000012" y="52.1"><title>2024-09-15 21.68 mins</title></rect><rect fill="#b58d00" height="4" rx="1" ry="1" width="4" x="209.80000000000013" y="19.7"><title>2024-09-16 4.88 mins</title></rect><rect fill="#b69401" height="4" rx="1" ry="1" width="4" x="209.80000000000013" y="25.1"><title>2024-09-17 12.58 mins</title></rect><rect fill="#b69001" height="4" rx="1" ry="1" width="4" x="209.80000000000013" y="30.5"><title>2024-09-18 7.98 mins</title></rect><rect fill="#b58c00" height="4" rx="1" ry="1" width="4" x="209.80000000000013" y="35.9"><title>2024-09-19 4.05 mins</title></rect><rect fill="#b8d123" height="4" rx="1" ry="1" width="4" x="209.80000000000013" y="41.300000000000004"><title>2024-09-20 176.57 mins</title></rect><rect fill="#cd891b" height="4" rx="1" ry="1" width="4" x="209.80000000000013" y="46.699999999999996"><title>2024-09-21 67.0 mins</title></rect><rect fill="#cd821a" height="4" rx="1" ry="1" width="4" x="209.80000000000013" y="52.1"><title>2024-09-22 59.1 mins</title></rect><rect fill="#b58a00" height="4" rx="1" ry="1" width="4" x="215.20000000000013" y="19.7"><title>2024-09-23 1.35 mins</title></rect><rect fill="#b69501" height="4" rx="1" ry="1" width="4" x="215.20000000000013" y="25.1"><title>2024-09-24 14.13 mins</title></rect><rect fill="#ce9b1c" height="4" rx="1" ry="1" width="4" x="215.20000000000013" y="30.5"><title>2024-09-25 87.4 mins</title></rect><rect fill="#6c71c4" height="4" rx="1" ry="1" width="4" x="215.20000000000013" y="35.9"><title>2024-09-26 264.18 mins</title></rect><rect fill="#cfbf1f" height="4" rx="1" ry="1" width="4" x="215.20000000000013" y="41.300000000000004"><title>2024-09-27 126.8 mins</title></rect><rect fill="#b69501" height="4" rx="1" ry="1" width="4" x="215.20000000000013" y="46.699999999999996"><title>2024-09-28 13.75 mins</title></rect><rect fill="#b8a102" height="4" rx="1" ry="1" width="4" x="215.20000000000013" y="52.1"><title>2024-09-29 27.87 mins</title></rect><rect fill="#d0ca20" height="4" rx="1" ry="1" width="4" x="220.60000000000014" y="19.7"><title>2024-09-30 139.82 mins</title></rect><rect fill="#c2d122" height="4" rx="1" ry="1" width="4" x="220.60000000000014" y="25.1"><title>2024-10-01 163.33 mins</title></rect><rect fill="#ce901b" height="4" rx="1" ry="1" width="4" x="220.60000000000014" y="30.5"><title>2024-10-02 75.42 mins</title></rect><rect fill="#b8a202" height="4" rx="1" ry="1" width="4" x="220.60000000000014" y="35.9"><title>2024-10-03 29.77 mins</title></rect><rect fill="#cea51d" height="4" rx="1" ry="1" width="4" x="220.60000000000014" y="41.300000000000004"><title>2024-10-04 97.93 mins</title></rect><rect fill="#b8a903" height="4" rx="1" ry="1" width="4" x="220.60000000000014" y="46.699999999999996"><title>2024-10-05 37.25 mins</title></rect><rect fill="#b79701" height="4" rx="1" ry="1" width="4" x="220.60000000000014" y="52.1"><title>2024-10-06 16.15 mins</title></rect><text fill="#586e75" style="font-size:2.5px; font-family:Arial" x="226.00000000000014" y="18.3">Oct</text><rect fill="#bab804" height="4" rx="1" ry="1" width="4" x="226.00000000000014" y="19.7"><title>2024-10-07 55.1 mins</title></rect><rect fill="#b79f02" height="4" rx="1" ry="1" width="4" x="226.00000000000014" y="25.1"><title>2024-10-08 26.37 mins</title></rect><rect fill="#b58900" height="4" rx="1" ry="1" width="4" x="226.00000000000014" y="30.5"><title>2024-10-09 0.13 mins</title></rect><rect fill="#b69601" height="4" rx="1" ry="1" width="4" x="226.00000000000014" y="35.9"><title>2024-10-10 14.87 mins</title></rect><rect fill="#b58a00" height="4" rx="1" ry="1" width="4" x="226.00000000000014" y="41.300000000000004"><title>2024-10-11 1.55 mins</title></rect><rect fill="#cfad1d" height="4" rx="1" ry="1" width="4" x="226.00000000000014" y="46.699999999999996"><title>2024-10-12 106.57 mins</title></rect><rect fill="#cfa71d" height="4" rx="1" ry="1" width="4" x="226.00000000000014" y="52.1"><title>2024-10-13 99.98 mins</title></rect><rect fill="#b58900" height="4" rx="1" ry="1" width="4" x="231.40000000000015" y="19.7"><title>2024-10-14 0.23 mins</title></rect><rect fill="#b8a703" height="4" rx="1" ry="1" width="4" x="231.40000000000015" y="25.1"><title>2024-10-15 35.57 mins</title></rect><rect fill="#eee8d5" height="4" rx="1" ry="1" width="4" x="231.40000000000015" y="30.5"><title>2024-10-16</title></rect><rect fill="#cd841a" height="4" rx="1" ry="1" width="4" x="231.40000000000015" y="35.9"><title>2024-10-17 62.13 mins</title></rect><rect fill="#d0cc20" height="4" rx="1" ry="1" width="4" x="231.40000000000015" y="41.300000000000004"><title>2024-10-18 142.18 mins</title></rect><rect fill="#6c71c4" height="4" rx="1" ry="1" width="4" x="231.40000000000015" y="46.699999999999996"><title>2024-10-19 252.45 mins</title></rect><rect fill="#cfd020" height="4" rx="1" ry="1" width="4" x="231.40000000000015" y="52.1"><title>2024-10-20 147.55 mins</title></rect><rect fill="#cfa71d" height="4" rx="1" ry="1" width="4" x="236.80000000000015" y="19.7"><title>2024-10-21 100.85 mins</title></rect><rect fill="#acd124" height="4" rx="1" ry="1" width="4" x="236.80000000000015" y="25.1"><title>2024-10-22 191.17 mins</title></rect><rect fill="#cfbb1f" height="4" rx="1" ry="1" width="4" x="236.80000000000015" y="30.5"><title>2024-10-23 122.25 mins</title></rect><rect fill="#6c71c4" height="4" rx="1" ry="1" width="4" x="236.80000000000015" y="35.9"><title>2024-10-24 254.37 mins</title></rect><rect fill="#6c71c4" height="4" rx="1" ry="1" width="4" x="236.80000000000015" y="41.300000000000004"><title>2024-10-25 263.32 mins</title></rect><rect fill="#6c71c4" height="4" rx="1" ry="1" width="4" x="236.80000000000015" y="46.699999999999996"><title>2024-10-26 194.75 mins</title></rect><rect fill="#d0c21f" height="4" rx="1" ry="1" width="4" x="236.80000000000015" y="52.1"><title>2024-10-27 130.67 mins</title></rect><rect fill="#b69001" height="4" rx="1" ry="1" width="4" x="242.20000000000016" y="19.7"><title>2024-10-28 7.98 mins</title></rect><rect fill="#cfb31e" height="4" rx="1" ry="1" width="4" x="242.20000000000016" y="25.1"><title>2024-10-29 113.48 mins</title></rect><rect fill="#cfb41e" height="4" rx="1" ry="1" width="4" x="242.20000000000016" y="30.5"><title>2024-10-30 115.0 mins</title></rect><rect fill="#ce911b" height="4" rx="1" ry="1" width="4" x="242.20000000000016" y="35.9"><title>2024-10-31 75.85 mins</title></rect><rect fill="#cfa61d" height="4" rx="1" ry="1" width="4" x="242.20000000000016" y="41.300000000000004"><title>2024-11-01 99.53 mins</title></rect><rect fill="#6c71c4" height="4" rx="1" ry="1" width="4" x="242.20000000000016" y="46.699999999999996"><title>2024-11-02 223.03 mins</title></rect><rect fill="#b9ab03" height="4" rx="1" ry="1" width="4" x="242.20000000000016" y="52.1"><title>2024-11-03 40.23 mins</title></rect><text fill="#586e75" style="font-size:2.5px; font-family:Arial" x="247.60000000000016" y="18.3">Nov</text><rect fill="#baba04" height="4" rx="1" ry="1" width="4" x="247.60000000000016" y="19.7"><title>2024-11-04 57.68 mins</title></rect><rect fill="#b79901" height="4" rx="1" ry="1" width="4" x="247.60000000000016" y="25.1"><title>2024-11-05 19.07 mins</title></rect><rect fill="#b8a102" height="4" rx="1" ry="1" width="4" x="247.60000000000016" y="30.5"><title>2024-11-06 27.82 mins</title></rect><rect fill="#cfac1d" height="4" rx="1" ry="1" width="4" x="247.60000000000016" y="35.9"><title>2024-11-07 105.98 mins</title></rect><rect fill="#b79e02" height="4" rx="1" ry="1" width="4" x="247.60000000000016" y="41.300000000000004"><title>2024-11-08 24.53 mins</title></rect><rect fill="#ce911b" height="4" rx="1" ry="1" width="4" x="247.60000000000016" y="46.699999999999996"><title>2024-11-09 75.55 mins</title></rect><rect fill="#6c71c4" height="4" rx="1" ry="1" width="4" x="247.60000000000016" y="52.1"><title>2024-11-10 250.77 mins</title></rect><rect fill="#6c71c4" height="4" rx="1" ry="1" width="4" x="253.00000000000017" y="19.7"><title>2024-11-11 204.3 mins</title></rect><rect fill="#b1d123" height="4" rx="1" ry="1" width="4" x="253.00000000000017" y="25.1"><title>2024-11-12 184.18 mins</title></rect><rect fill="#b8a702" height="4" rx="1" ry="1" width="4" x="253.00000000000017" y="30.5"><title>2024-11-13 35.15 mins</title></rect><rect fill="#d0cc20" height="4" rx="1" ry="1" width="4" x="253.00000000000017" y="35.9"><title>2024-11-14 141.77 mins</title></rect><rect fill="#6c71c4" height="4" rx="1" ry="1" width="4" x="253.00000000000017" y="41.300000000000004"><title>2024-11-15 305.87 mins</title></rect><rect fill="#b79a01" height="4" rx="1" ry="1" width="4" x="253.00000000000017" y="46.699999999999996"><title>2024-11-16 20.43 mins</title></rect><rect fill="#b8a903" height="4" rx="1" ry="1" width="4" x="253.00000000000017" y="52.1"><title>2024-11-17 37.38 mins</title></rect><rect fill="#b69501" height="4" rx="1" ry="1" width="4" x="258.40000000000015" y="19.7"><title>2024-11-18 14.27 mins</title></rect><rect fill="#b69401" height="4" rx="1" ry="1" width="4" x="258.40000000000015" y="25.1"><title>2024-11-19 13.32 mins</title></rect><rect fill="#d0c61f" height="4" rx="1" ry="1" width="4" x="258.40000000000015" y="30.5"><title>2024-11-20 135.37 mins</title></rect><rect fill="#b58900" height="4" rx="1" ry="1" width="4" x="258.40000000000015" y="35.9"><title>2024-11-21 0.08 mins</title></rect><rect fill="#b58900" height="4" rx="1" ry="1" width="4" x="258.40000000000015" y="41.300000000000004"><title>2024-11-22 0.23 mins</title></rect><rect fill="#baba04" height="4" rx="1" ry="1" width="4" x="258.40000000000015" y="46.699999999999996"><title>2024-11-23 57.03 mins</title></rect><rect fill="#b58900" height="4" rx="1" ry="1" width="4" x="258.40000000000015" y="52.1"><title>2024-11-24 0.08 mins</title></rect><rect fill="#b79801" height="4" rx="1" ry="1" width="4" x="263.8000000000001" y="19.7"><title>2024-11-25 17.18 mins</title></rect><rect fill="#b69001" height="4" rx="1" ry="1" width="4" x="263.8000000000001" y="25.1"><title>2024-11-26 8.68 mins</title></rect><rect fill="#b79e02" height="4" rx="1" ry="1" width="4" x="263.8000000000001" y="30.5"><title>2024-11-27 24.68 mins</title></rect><rect fill="#b8a102" height="4" rx="1" ry="1" width="4" x="263.8000000000001" y="35.9"><title>2024-11-28 27.63 mins</title></rect><rect fill="#b79801" height="4" rx="1" ry="1" width="4" x="263.8000000000001" y="41.300000000000004"><title>2024-11-29 17.5 mins</title></rect><rect fill="#b79b01" height="4" rx="1" ry="1" width="4" x="263.8000000000001" y="46.699999999999996"><title>2024-11-30 20.77 mins</title></rect><rect fill="#eee8d5" height="4" rx="1" ry="1" width="4" x="263.8000000000001" y="52.1"><title>2024-12-01</title></rect><text fill="#586e75" style="font-size:2.5px; font-family:Arial" x="269.2000000000001" y="18.3">Dec</text><rect fill="#eee8d5" height="4" rx="1" ry="1" width="4" x="269.2000000000001" y="19.7"><title>2024-12-02</title></rect><rect fill="#eee8d5" height="4" rx="1" ry="1" width="4" x="269.2000000000001" y="25.1"><title>2024-12-03</title></rect><rect fill="#eee8d5" height="4" rx="1" ry="1" width="4" x="269.2000000000001" y="30.5"><title>2024-12-04</title></rect><rect fill="#eee8d5" height="4" rx="1" ry="1" width="4" x="269.2000000000001" y="35.9"><title>2024-12-05</title></rect><rect fill="#eee8d5" height="4" rx="1" ry="1" width="4" x="269.2000000000001" y="41.300000000000004"><title>2024-12-06</title></rect><rect fill="#eee8d5" height="4" rx="1" ry="1" width="4" x="269.2000000000001" y="46.699999999999996"><title>2024-12-07</title></rect><rect fill="#eee8d5" height="4" rx="1" ry="1" width="4" x="269.2000000000001" y="52.1"><title>2024-12-08</title></rect><rect fill="#eee8d5" height="4" rx="1" ry="1" width="4" x="274.6000000000001" y="19.7"><title>2024-12-09</title></rect><rect fill="#eee8d5" height="4" rx="1" ry="1" width="4" x="274.6000000000001" y="25.1"><title>2024-12-10</title></rect><rect fill="#eee8d5" height="4" rx="1" ry="1" width="4" x="274.6000000000001" y="30.5"><title>2024-12-11</title></rect><rect fill="#eee8d5" height="4" rx="1" ry="1" width="4" x="274.6000000000001" y="35.9"><title>2024-12-12</title></rect><rect fill="#eee8d5" height="4" rx="1" ry="1" width="4" x="274.6000000000001" y="41.300000000000004"><title>2024-12-13</title></rect><rect fill="#eee8d5" height="4" rx="1" ry="1" width="4" x="274.6000000000001" y="46.699999999999996"><title>2024-12-14</title></rect><rect fill="#eee8d5" height="4" rx="1" ry="1" width="4" x="274.6000000000001" y="52.1"><title>2024-12-15</title></rect><rect fill="#eee8d5" height="4" rx="1" ry="1" width="4" x="280.00000000000006" y="19.7"><title>2024-12-16</title></rect><rect fill="#eee8d5" height="4" rx="1" ry="1" width="4" x="280.00000000000006" y="25.1"><title>2024-12-17</title></rect><rect fill="#eee8d5" height="4" rx="1" ry="1" width="4" x="280.00000000000006" y="30.5"><title>2024-12-18</title></rect><rect fill="#eee8d5" height="4" rx="1" ry="1" width="4" x="280.00000000000006" y="35.9"><title>2024-12-19</title></rect><rect fill="#eee8d5" height="4" rx="1" ry="1" width="4" x="280.00000000000006" y="41.300000000000004"><title>2024-12-20</title></rect><rect fill="#eee8d5" height="4" rx="1" ry="1" width="4" x="280.00000000000006" y="46.699999999999996"><title>2024-12-21</title></rect><rect fill="#eee8d5" height="4" rx="1" ry="1" width="4" x="280.00000000000006" y="52.1"><title>2024-12-22</title></rect><rect fill="#eee8d5" height="4" rx="1" ry="1" width="4" x="285.40000000000003" y="19.7"><title>2024-12-23</title></rect><rect fill="#eee8d5" height="4" rx="1" ry="1" width="4" x="285.40000000000003" y="25.1"><title>2024-12-24</title></rect><rect fill="#eee8d5" height="4" rx="1" ry="1" width="4" x="285.40000000000003" y="30.5"><title>2024-12-25</title></rect><rect fill="#eee8d5" height="4" rx="1" ry="1" width="4" x="285.40000000000003" y="35.9"><title>2024-12-26</title></rect><rect fill="#eee8d5" height="4" rx="1" ry="1" width="4" x="285.40000000000003" y="41.300000000000004"><title>2024-12-27</title></rect><rect fill="#eee8d5" height="4" rx="1" ry="1" width="4" x="285.40000000000003" y="46.699999999999996"><title>2024-12-28</title></rect><rect fill="#eee8d5" height="4" rx="1" ry="1" width="4" x="285.40000000000003" y="52.1"><title>2024-12-29</title></rect><rect fill="#eee8d5" height="4" rx="1" ry="1" width="4" x="290.8" y="19.7"><title>2024-12-30</title></rect><rect fill="#eee8d5" height="4" rx="1" ry="1" width="4" x="290.8" y="25.1"><title>2024-12-31</title></rect></svg>